

Release info:

General
Format : Matroska
Format version : Version 2
File size : 693 MiB
Duration : 2h 2mn
Overall bit rate : 793 Kbps

Video
ID : 1
Format : MPEG-4 Visual
Format profile : Advanced Simple@L5
Format settings, BVOP : Yes
Format settings, QPel : No
Format settings, GMC : No warppoints
Format settings, Matrix : Default (H.263)
Codec ID : V_MS/VFW/FOURCC / XVID
Codec ID/Hint : XviD
Duration : 2h 2mn
Bit rate : 665 Kbps
Width : 624 pixels
Height : 256 pixels
Display aspect ratio : 2.40:1
Frame rate mode : Constant
Frame rate : 25.000 fps
Color space : YUV
Chroma subsampling : 4:2:0
Bit depth : 8 bits
Scan type : Progressive
Compression mode : Lossy
Bits/(Pixel*Frame) : 0.167
Stream size : 581 MiB (84%)
Writing library : XviD 64
Default : Yes
Forced : No

Audio
ID : 2
Format : MPEG Audio
Format version : Version 1
Format profile : Layer 3
Mode : Joint stereo
Mode extension : MS Stereo
Muxing mode : Header stripping
Codec ID : A_MPEG/L3
Codec ID/Hint : MP3
Duration : 2h 2mn
Bit rate mode : Constant
Bit rate : 112 Kbps
Channel(s) : 2 channels
Sampling rate : 48.0 KHz
Compression mode : Lossy
Stream size : 97.8 MiB (14%)
Default : Yes
Forced : No

Source:
credit to original movie ripper (Thanks)

IMDB Info:

In the bleak days of the Cold War, espionage veteran George Smiley is forced from semi-retirement to uncover a Soviet agent within MI6.

Director: Tomas Alfredson
Writers: Bridget O'Connor (screenplay), Peter Straughan (screenplay), 
Stars: Gary Oldman, Colin Firth and Tom Hardy 

Ratings: 7.1/10 from 79,047 users Metascore: 85/100 
Reviews: 437 user | 407 critic | 42 from Metacritic.com

Box Office
Budget: ┬ú20,000,000 (estimated)
Opening Weekend: ┬ú2,814,860 (UK) (18 September 2011) (382 Screens)
Gross: $39,694,989 (Worldwide) (14 January 2011)

Genres: Drama | Mystery | Thriller
 
http://www.imdb.com/title/tt1340800/

Screen Shot:
 
http://www.shotpix.com/images/23355143071093377721.png 
http://www.shotpix.com/images/48495530633772318661.png 
http://www.shotpix.com/images/49641193841697995762.png 
http://www.shotpix.com/images/83114045808507744184.png 
http://www.shotpix.com/images/42844869482515261936.png 
http://www.shotpix.com/images/49257343756420494217.png